PathFileType	4	(X/Y/Z)	D:\Share\Shared_Data\Ergonomics\Sit To Stand Pertubation\S0\Perturbed STS.trc
DataRate	CameraRate	NumFrames	NumMarkers	Units	OrigDataRate	OrigDataStartFrame	OrigNumFrames	
100	100	12	18	m	100	6138	181
Frame#	Time	R_Heel			R_ASIS			R_Pelvis			V_Sacral			L_Pelvis			L_ASIS			Clavical			R_Acromium			L_Acromium			Sternum			Torso			R_Thigh_Med			R_Thigh_Lat			R_Thigh			R_Shank_Med			R_Shank_Lat			R_Shank			R_Toe			
		X1	Y1	Z1	X2	Y2	Z2	X3	Y3	Z3	X4	Y4	Z4	X5	Y5	Z5	X6	Y6	Z6	X7	Y7	Z7	X8	Y8	Z8	X9	Y9	Z9	X10	Y10	Z10	X11	Y11	Z11	X12	Y12	Z12	X13	Y13	Z13	X14	Y14	Z14	X15	Y15	Z15	X16	Y16	Z16	X17	Y17	Z17	X18	Y18	Z18	

6138	17.72	0.15111983	0.048610123	0.14705452	-0.094148827	0.74535028	0.13862868	-0.22843832	0.7293454	0.17731688	-0.34072159	0.69747382	-0.05547205	-0.19287537	0.7232807	-0.2304221	-0.070872826	0.73910706	-0.18045743	0.016094118	1.0904341	-0.026868322	-0.049339939	1.172011	0.11254021	-0.049067291	1.1731262	-0.18118518	0.022833408	0.99299231	-0.041399769	0.012498262	1.0406366	-0.14725414	0.24065202	0.5042215	0.068322243	0.21201964	0.52143292	0.20037727	0.14035181	0.65552979	0.11765939	0.24731204	0.11170037	0.10838409	0.1876665	0.091795494	0.19454083	0.20711259	0.31976166	0.21369315	0.37136523	0.0515867	0.14100339
6139	17.73	0.15123683	0.048322189	0.14677493	-0.092943008	0.74548718	0.13873953	-0.22748952	0.73003906	0.17731148	-0.3399024	0.69858044	-0.05551688	-0.19186664	0.72382001	-0.23045177	-0.069689613	0.73889362	-0.18043562	0.020398428	1.0890006	-0.02683477	-0.044251633	1.1711512	0.1125302	-0.044008385	1.1721661	-0.18108337	0.026401468	0.99149158	-0.041322247	0.016490311	1.0391986	-0.14714938	0.24077951	0.50404776	0.068262947	0.21223015	0.5212196	0.20033893	0.14065086	0.65535547	0.11771152	0.24743445	0.11149345	0.10818684	0.18770653	0.091567245	0.19423149	0.20712292	0.31949164	0.21354207	0.37162863	0.051466908	0.14102715
6140	17.74	0.1512831	0.048057148	0.14652611	-0.091682495	0.74560168	0.13885941	-0.22648944	0.73076135	0.17731749	-0.33903732	0.69973315	-0.055556664	-0.19080327	0.72437762	-0.23047195	-0.068445129	0.73867114	-0.18041374	0.024832567	1.0875258	-0.026806662	-0.039033176	1.1702432	0.11251839	-0.038830112	1.1711517	-0.18098853	0.030068531	0.98994263	-0.041244736	0.020576036	1.0377065	-0.14704669	0.24093628	0.50389249	0.068180252	0.21248045	0.52104486	0.20027745	0.14098323	0.65520105	0.11773392	0.24748296	0.111308	0.10799646	0.18769223	0.09137571	0.1939456	0.20710532	0.31927817	0.21338808	0.37180405	0.051360378	0.14104774
6141	17.75	0.15125999	0.04779921	0.14630907	-0.090361351	0.74570636	0.13898749	-0.22543892	0.73151538	0.177338	-0.3381265	0.70093463	-0.055588795	-0.18968674	0.72495398	-0.23048253	-0.067142242	0.73843994	-0.1803907	0.029394432	1.0860001	-0.026783939	-0.033681595	1.1692855	0.11250323	-0.033532085	1.170083	-0.18090129	0.033835411	0.98834448	-0.041168888	0.024751575	1.0361582	-0.14694659	0.24111116	0.50373895	0.068073189	0.2127561	0.52089307	0.20019041	0.14135193	0.65506128	0.11772235	0.24745859	0.11113325	0.10781242	0.18762572	0.091206161	0.19369858	0.2070632	0.31910797	0.21323055	0.37189603	0.051269577	0.14106416
6142	17.76	0.15117831	0.047531868	0.14612143	-0.088985809	0.74580835	0.13912193	-0.22433771	0.73230347	0.17737389	-0.33716965	0.7021875	-0.0556115	-0.18851799	0.7255495	-0.23048306	-0.065783745	0.73820197	-0.18036511	0.03408152	1.0844165	-0.026767071	-0.028194553	1.1682783	0.11248228	-0.028113842	1.1689591	-0.1808213	0.037701565	0.98669629	-0.041096821	0.029014114	1.0345533	-0.14684969	0.2412923	0.50357126	0.067941147	0.21304205	0.52074628	0.20007681	0.14175787	0.65492969	0.1176744	0.24737263	0.11095774	0.10763281	0.18751579	0.091041916	0.19349924	0.20700642	0.31896289	0.21306773	0.37191986	0.051195766	0.14107585
6143	17.77	0.15105516	0.047239574	0.14595853	-0.087575851	0.74590875	0.13926007	-0.22318393	0.73312543	0.17742342	-0.33616614	0.70349396	-0.055624126	-0.18729729	0.72616498	-0.23047238	-0.064373451	0.73795905	-0.18033585	0.038891052	1.0827706	-0.026756916	-0.022570671	1.1672206	0.11245292	-0.022575102	1.1677791	-0.18074763	0.041665257	0.98499713	-0.041031128	0.033363049	1.0328914	-0.14675708	0.24146828	0.50337476	0.067783852	0.21332962	0.52058661	0.19993707	0.1421998	0.65479919	0.11758969	0.24724176	0.11076961	0.10745441	0.18737531	0.090865814	0.19334517	0.20694893	0.31882251	0.21289691	0.37189795	0.051138336	0.14108214
6144	17.78	0.15090945	0.046910156	0.14581529	-0.086166435	0.74600256	0.13939847	-0.22197453	0.73398035	0.17748296	-0.33511542	0.70485559	-0.055627068	-0.18602348	0.72680048	-0.23044859	-0.062917255	0.73771112	-0.18030179	0.04381963	1.0810597	-0.026754522	-0.016809851	1.1661116	0.11241278	-0.016916121	1.1665421	-0.18067943	0.045723701	0.98324683	-0.040974419	0.037800362	1.0311736	-0.14667043	0.2416292	0.50313599	0.067601456	0.21361926	0.52039966	0.19977229	0.14267438	0.65466272	0.11746989	0.24708344	0.11055724	0.10727312	0.1872186	0.090662292	0.19322296	0.20690601	0.3186666	0.212715	0.37185428	0.051094265	0.14108238
6145	17.79	0.15075815	0.046536533	0.1456875	-0.08480584	0.74607922	0.13953336	-0.22070615	0.73486713	0.17754807	-0.33401627	0.70627289	-0.055621414	-0.18469411	0.72745551	-0.23040881	-0.061422966	0.7374566	-0.18026125	0.048863197	1.0792836	-0.026761	-0.010913506	1.1649508	0.11235984	-0.011138012	1.1652474	-0.18061612	0.049873714	0.98144543	-0.040928471	0.042330372	1.0294014	-0.14659149	0.24176793	0.50284375	0.067394562	0.21391554	0.52017548	0.1995833	0.143177	0.65451355	0.11731771	0.24691293	0.11031052	0.10708479	0.18705956	0.090419357	0.1931132	0.20689116	0.31847827	0.21251933	0.37181085	0.051058079	0.14107669
6146	17.8	0.15061349	0.046117535	0.1455722	-0.083549797	0.74612402	0.13966022	-0.2193757	0.73578534	0.17761482	-0.33286713	0.70774603	-0.055608681	-0.18330594	0.72812878	-0.23035074	-0.059898525	0.73719312	-0.18021162	0.054017303	1.0774436	-0.026777363	-0.0048841333	1.1637393	0.11229233	-0.0052426553	1.1638936	-0.18055745	0.054112621	0.97959375	-0.04089362	0.046959049	1.0275767	-0.14652151	0.241881	0.50249088	0.067164009	0.21422154	0.5199093	0.19936993	0.14370351	0.65434491	0.11713533	0.24674133	0.11002218	0.10688623	0.18691034	0.090130371	0.19299864	0.20691432	0.31824661	0.21230809	0.37178494	0.051022717	0.14106735
6147	17.81	0.15048236	0.045658199	0.14546747	-0.082449455	0.74612128	0.13977356	-0.21798079	0.73673535	0.17768083	-0.33166583	0.70927454	-0.055590424	-0.18185666	0.72881897	-0.23027405	-0.058351414	0.73691748	-0.18014969	0.059277317	1.0755421	-0.026804329	0.0012754557	1.162478	0.11220889	0.00076780045	1.1624781	-0.18050302	0.058439297	0.97769232	-0.040868793	0.05169268	1.0257012	-0.14646082	0.24196912	0.50207608	0.066910446	0.21453999	0.51960345	0.19913138	0.14425064	0.65415027	0.11692403	0.24657533	0.10968954	0.1066762	0.18678029	0.089795776	0.19286888	0.20698068	0.31796899	0.21208107	0.37178772	0.050980846	0.14105919
6148	17.82	0.1503663	0.04517009	0.1453725	-0.081531647	0.74605988	0.1398678	-0.21651926	0.73771796	0.17774535	-0.33040988	0.71085773	-0.05556778	-0.18034618	0.72952393	-0.23018155	-0.056789024	0.73662695	-0.18007208	0.064638947	1.0735807	-0.026842165	0.007562727	1.1611699	0.11210861	0.006891252	1.1609982	-0.18045232	0.062853664	0.97574152	-0.040852028	0.056536167	1.0237758	-0.14640836	0.24203728	0.50160522	0.066634003	0.21487822	0.51926617	0.19886668	0.14481723	0.65392499	0.11668557	0.24641826	0.10931648	0.10645597	0.18667459	0.089424217	0.19272014	0.20709137	0.31765253	0.21183966	0.37182318	0.050926655	0.14105829
6149	17.83	0.15026315	0.044670784	0.145287	-0.080771843	0.7459436	0.13994037	-0.21498834	0.73873444	0.17780859	-0.32909656	0.71249469	-0.055541161	-0.17877655	0.73024164	-0.23007841	-0.055217403	0.73631854	-0.17997614	0.070098495	1.0715609	-0.026890654	0.013976199	1.159818	0.11199127	0.013125921	1.1594509	-0.18040469	0.067353882	0.97374072	-0.040841038	0.061491962	1.0218005	-0.14636145	0.2420945	0.50109137	0.066334419	0.21524815	0.51891046	0.19857532	0.14540672	0.65367249	0.1164229	0.24627193	0.10891452	0.10622874	0.18659384	0.089032562	0.19255353	0.2072449	0.31731308	0.21158615	0.37188852	0.050857243	0.14106982
